<svg width="27" height="23" viewBox="0 0 27 23" fill="none" xmlns="http://www.w3.org/2000/svg">
<path d="M25.5 13C26.3284 13 27 12.3284 27 11.5C27 10.6716 26.3284 10 25.5 10V13ZM0.93934 10.4393C0.353553 11.0251 0.353553 11.9749 0.93934 12.5607L10.4853 22.1066C11.0711 22.6924 12.0208 22.6924 12.6066 22.1066C13.1924 21.5208 13.1924 20.5711 12.6066 19.9853L4.12132 11.5L12.6066 3.01472C13.1924 2.42893 13.1924 1.47918 12.6066 0.893398C12.0208 0.307612 11.0711 0.307612 10.4853 0.893398L0.93934 10.4393ZM25.5 10H2V13H25.5V10Z" fill="white"/>
</svg>
