<svg width="80" height="80" viewBox="0 0 80 80" fill="none" xmlns="http://www.w3.org/2000/svg">
<style xmlns="http://www.w3.org/2000/svg">
      .cls-1 {
        fill: #fff;
        stroke-width: 0px;
      }
    </style>
<path xmlns="http://www.w3.org/2000/svg" class="cls-1" d="M93.21,35.03H23.25l23.44-23.44c2.65-2.65,2.65-6.95,0-9.6s-6.95-2.65-9.6,0L2.6,36.48s-.08.06-.11.09c-.35.28-.66.6-.95.95-.07.08-.12.16-.18.24-.07.1-.15.19-.21.29-.06.1-.12.2-.18.3-.05.09-.11.18-.16.27-.05.1-.1.2-.15.31-.05.1-.1.19-.14.29-.04.1-.07.2-.11.3-.04.11-.08.21-.11.32-.03.1-.05.21-.08.31-.03.11-.06.22-.08.33-.02.12-.04.24-.05.36-.01.1-.03.2-.04.3-.02.22-.03.45-.03.67,0,0,0,0,0,0h0s0,.02,0,.04c0,1.75.65,3.5,1.99,4.84h0c.19.19.4.37.61.54l34.49,34.49c2.65,2.65,6.95,2.65,9.6,0,2.65-2.65,2.65-6.95,0-9.6l-23.52-23.52h70.04c3.75,0,6.79-3.04,6.79-6.79h0c0-3.75-3.04-6.79-6.79-6.79Z"/>
</svg>
