<?xml version="1.0" encoding="UTF-8"?>
<!DOCTYPE svg PUBLIC "-//W3C//DTD SVG 1.1//EN" "http://www.w3.org/Graphics/SVG/1.1/DTD/svg11.dtd">
<svg xmlns="http://www.w3.org/2000/svg" version="1.1" width="412px" height="361px" style="shape-rendering:geometricPrecision; text-rendering:geometricPrecision; image-rendering:optimizeQuality; fill-rule:evenodd; clip-rule:evenodd" xmlns:xlink="http://www.w3.org/1999/xlink">
<g><path style="opacity:1" fill="#000" d="M -0.5,-0.5 C 136.833,-0.5 274.167,-0.5 411.5,-0.5C 411.5,119.833 411.5,240.167 411.5,360.5C 274.167,360.5 136.833,360.5 -0.5,360.5C -0.5,240.167 -0.5,119.833 -0.5,-0.5 Z"/></g>
<g><path style="opacity:1" fill="#000" d="M 199.5,16.5 C 270.608,15.862 322.441,46.862 355,109.5C 376.366,160.417 373.699,210.084 347,258.5C 314.907,308.56 268.907,334.56 209,336.5C 149.553,334.287 103.886,308.287 72,258.5C 41.0307,201.507 42.0307,145.173 75,89.5C 105.057,45.7191 146.557,21.3857 199.5,16.5 Z"/></g>
<g><path style="opacity:1" fill="#fff" d="M 215.5,78.5 C 229.797,75.9009 240.297,80.9009 247,93.5C 250.189,106.584 245.689,116.084 233.5,122C 219.137,126.662 208.304,122.495 201,109.5C 196.995,98.1848 199.828,89.0181 209.5,82C 211.727,81.059 213.727,79.8923 215.5,78.5 Z"/></g>
<g><path style="opacity:1" fill="#fff" d="M 191.5,144.5 C 223.964,141.458 236.798,155.792 230,187.5C 225.361,202.722 221.027,218.055 217,233.5C 211.362,251.131 217.529,258.631 235.5,256C 238.393,255.369 241.226,254.536 244,253.5C 244.5,253.833 245,254.167 245.5,254.5C 244.392,258.112 243.058,261.612 241.5,265C 232.886,268.204 224.22,271.204 215.5,274C 207.006,275.066 198.672,274.399 190.5,272C 182.507,268.674 177.341,262.841 175,254.5C 174.333,248.833 174.333,243.167 175,237.5C 178.862,221.722 183.195,206.055 188,190.5C 196.092,165.091 187.592,156.758 162.5,165.5C 161.779,161.522 162.446,157.689 164.5,154C 173.582,150.697 182.582,147.53 191.5,144.5 Z"/></g>
</svg>
