<svg width="17" height="17" viewBox="0 0 17 17" fill="none" xmlns="http://www.w3.org/2000/svg">
<path d="M9.48005 16.4765L16.8356 2.10605C17.1261 1.53748 17.0069 0.95155 16.6709 0.541399C16.6709 0.541399 16.6622 0.530558 16.6579 0.524048C16.6254 0.484986 16.5885 0.44809 16.5495 0.411198C16.53 0.391667 16.5105 0.372134 16.491 0.354773C16.4801 0.346092 16.4714 0.335241 16.4606 0.32656L16.4563 0.330905C16.0465 -0.00546227 15.4612 -0.126993 14.8932 0.163802L0.524568 7.50312C0.0302932 7.75702 -0.149635 8.3755 0.136524 8.85076C0.314289 9.14589 0.635124 9.3195 0.979816 9.30865L7.21029 9.10683C7.40757 9.10032 7.58966 9.15674 7.74141 9.2544C7.8368 9.4063 7.891 9.58642 7.8845 9.78173L7.67421 16.0186C7.66337 16.3637 7.83681 16.6849 8.13164 16.8628C8.60423 17.1493 9.22424 16.9713 9.47788 16.4765H9.48005Z" fill="white"/>
</svg>
