<svg width="112" height="110" viewBox="0 0 112 110" fill="none" xmlns="http://www.w3.org/2000/svg">
<rect x="0.632324" y="0.422852" width="111.368" height="109.141" rx="20" fill="black"/>
<path d="M13.517 63.7168V46.2623H20.5057C21.7898 46.2623 22.8608 46.4526 23.7188 46.8333C24.5767 47.214 25.2216 47.7424 25.6534 48.4185C26.0852 49.089 26.3011 49.8617 26.3011 50.7367C26.3011 51.4185 26.1648 52.0179 25.892 52.535C25.6193 53.0463 25.2443 53.4668 24.767 53.7963C24.2955 54.1202 23.7557 54.3503 23.1477 54.4867V54.6571C23.8125 54.6855 24.4347 54.873 25.0142 55.2196C25.5994 55.5662 26.0739 56.052 26.4375 56.677C26.8011 57.2963 26.983 58.035 26.983 58.8929C26.983 59.8191 26.7528 60.6458 26.2926 61.373C25.8381 62.0946 25.1648 62.6657 24.2727 63.0861C23.3807 63.5066 22.2813 63.7168 20.9744 63.7168H13.517ZM17.2074 60.6998H20.2159C21.2443 60.6998 21.9943 60.5037 22.4659 60.1117C22.9375 59.714 23.1733 59.1855 23.1733 58.5265C23.1733 58.0435 23.0568 57.6174 22.8239 57.248C22.5909 56.8787 22.2585 56.589 21.8267 56.3787C21.4006 56.1685 20.892 56.0634 20.3011 56.0634H17.2074V60.6998ZM17.2074 53.5662H19.9432C20.4489 53.5662 20.8977 53.4782 21.2898 53.302C21.6875 53.1202 22 52.8645 22.2273 52.535C22.4602 52.2054 22.5767 51.8105 22.5767 51.3503C22.5767 50.7196 22.3523 50.2111 21.9034 49.8248C21.4602 49.4384 20.8295 49.2452 20.0114 49.2452H17.2074V53.5662ZM35.402 63.9725C34.0554 63.9725 32.8963 63.6998 31.9247 63.1543C30.9588 62.6032 30.2145 61.8248 29.6917 60.8191C29.169 59.8077 28.9076 58.6117 28.9076 57.231C28.9076 55.8844 29.169 54.7026 29.6917 53.6855C30.2145 52.6685 30.9503 51.8759 31.8991 51.3077C32.8537 50.7395 33.973 50.4554 35.2571 50.4554C36.1207 50.4554 36.9247 50.5946 37.669 50.873C38.419 51.1458 39.0724 51.5577 39.6292 52.1088C40.1917 52.66 40.6292 53.3532 40.9417 54.1884C41.2542 55.0179 41.4105 55.9895 41.4105 57.1032V58.1003H30.3565V55.8503H37.9929C37.9929 55.3276 37.8792 54.8645 37.652 54.4611C37.4247 54.0577 37.1093 53.7424 36.7059 53.5151C36.3082 53.2821 35.8451 53.1657 35.3167 53.1657C34.7656 53.1657 34.277 53.2935 33.8508 53.5492C33.4304 53.7992 33.1008 54.1373 32.8622 54.5634C32.6236 54.9838 32.5014 55.4526 32.4957 55.9696V58.1088C32.4957 58.7566 32.615 59.3162 32.8537 59.7878C33.098 60.2594 33.4417 60.623 33.8849 60.8787C34.3281 61.1344 34.8537 61.2623 35.4616 61.2623C35.865 61.2623 36.2343 61.2054 36.5696 61.0918C36.9048 60.9782 37.1917 60.8077 37.4304 60.5804C37.669 60.3532 37.8508 60.0748 37.9758 59.7452L41.3338 59.9668C41.1633 60.7736 40.8139 61.4782 40.2855 62.0804C39.7628 62.677 39.0866 63.1429 38.2571 63.4782C37.4332 63.8077 36.4815 63.9725 35.402 63.9725ZM43.968 63.7168V46.2623H55.5248V49.3049H47.6583V53.464H54.7578V56.5066H47.6583V63.7168H43.968ZM61.6278 63.964C60.7925 63.964 60.0482 63.8191 59.3948 63.5293C58.7414 63.2338 58.2243 62.7992 57.8437 62.2253C57.4687 61.6458 57.2812 60.9242 57.2812 60.0605C57.2812 59.3333 57.4147 58.7225 57.6817 58.2282C57.9488 57.7338 58.3124 57.3361 58.7726 57.035C59.2329 56.7338 59.7556 56.5066 60.3408 56.3532C60.9317 56.1998 61.5511 56.0918 62.1988 56.0293C62.9601 55.9498 63.5738 55.8759 64.0397 55.8077C64.5056 55.7338 64.8437 55.6259 65.0539 55.4838C65.2641 55.3418 65.3692 55.1316 65.3692 54.8532V54.802C65.3692 54.2623 65.1988 53.8446 64.8579 53.5492C64.5226 53.2537 64.0454 53.106 63.4261 53.106C62.7726 53.106 62.2528 53.2509 61.8664 53.5407C61.48 53.8248 61.2243 54.1827 61.0993 54.6145L57.7414 54.3418C57.9118 53.5463 58.2471 52.8588 58.7471 52.2793C59.2471 51.6941 59.892 51.2452 60.6817 50.9327C61.4772 50.6145 62.3976 50.4554 63.4431 50.4554C64.1704 50.4554 64.8664 50.5407 65.5312 50.7111C66.2016 50.8816 66.7954 51.1458 67.3124 51.5037C67.8351 51.8617 68.2471 52.3219 68.5482 52.8844C68.8493 53.4412 68.9999 54.1088 68.9999 54.8873V63.7168H65.5567V61.9015H65.4545C65.2442 62.3105 64.963 62.6713 64.6107 62.9838C64.2584 63.2907 63.8351 63.5321 63.3408 63.7083C62.8465 63.8787 62.2755 63.964 61.6278 63.964ZM62.6675 61.4583C63.2016 61.4583 63.6732 61.3532 64.0823 61.1429C64.4914 60.927 64.8124 60.6373 65.0454 60.2736C65.2783 59.91 65.3948 59.498 65.3948 59.0378V57.6486C65.2812 57.7225 65.1249 57.7907 64.9261 57.8532C64.7329 57.91 64.5141 57.964 64.2698 58.0151C64.0255 58.0605 63.7812 58.1032 63.5368 58.1429C63.2925 58.177 63.0709 58.2083 62.8721 58.2367C62.4459 58.2992 62.0738 58.3986 61.7556 58.535C61.4374 58.6713 61.1903 58.856 61.0141 59.089C60.838 59.3162 60.7499 59.6003 60.7499 59.9412C60.7499 60.4355 60.9289 60.8134 61.2868 61.0748C61.6505 61.3304 62.1107 61.4583 62.6675 61.4583ZM75.2264 59.9498L75.235 55.5946H75.7634L79.9566 50.6259H84.1242L78.4907 57.2054H77.6299L75.2264 59.9498ZM71.9367 63.7168V46.2623H75.5674V63.7168H71.9367ZM80.1185 63.7168L76.2662 58.0151L78.6867 55.4498L84.3713 63.7168H80.1185ZM91.4523 63.9725C90.1057 63.9725 88.9466 63.6998 87.975 63.1543C87.0091 62.6032 86.2648 61.8248 85.742 60.8191C85.2193 59.8077 84.958 58.6117 84.958 57.231C84.958 55.8844 85.2193 54.7026 85.742 53.6855C86.2648 52.6685 87.0006 51.8759 87.9494 51.3077C88.904 50.7395 90.0233 50.4554 91.3074 50.4554C92.171 50.4554 92.975 50.5946 93.7193 50.873C94.4693 51.1458 95.1227 51.5577 95.6795 52.1088C96.242 52.66 96.6795 53.3532 96.992 54.1884C97.3045 55.0179 97.4608 55.9895 97.4608 57.1032V58.1003H86.4068V55.8503H94.0432C94.0432 55.3276 93.9295 54.8645 93.7023 54.4611C93.475 54.0577 93.1597 53.7424 92.7562 53.5151C92.3585 53.2821 91.8955 53.1657 91.367 53.1657C90.8159 53.1657 90.3273 53.2935 89.9011 53.5492C89.4807 53.7992 89.1511 54.1373 88.9125 54.5634C88.6739 54.9838 88.5517 55.4526 88.546 55.9696V58.1088C88.546 58.7566 88.6653 59.3162 88.904 59.7878C89.1483 60.2594 89.492 60.623 89.9352 60.8787C90.3784 61.1344 90.904 61.2623 91.5119 61.2623C91.9153 61.2623 92.2847 61.2054 92.6199 61.0918C92.9551 60.9782 93.242 60.8077 93.4807 60.5804C93.7193 60.3532 93.9011 60.0748 94.0261 59.7452L97.3841 59.9668C97.2136 60.7736 96.8642 61.4782 96.3358 62.0804C95.8131 62.677 95.1369 63.1429 94.3074 63.4782C93.4835 63.8077 92.5318 63.9725 91.4523 63.9725ZM102.072 63.9384C101.51 63.9384 101.027 63.7395 100.623 63.3418C100.226 62.9384 100.027 62.4554 100.027 61.8929C100.027 61.3361 100.226 60.8588 100.623 60.4611C101.027 60.0634 101.51 59.8645 102.072 59.8645C102.618 59.8645 103.095 60.0634 103.504 60.4611C103.913 60.8588 104.118 61.3361 104.118 61.8929C104.118 62.2679 104.021 62.6117 103.828 62.9242C103.64 63.231 103.393 63.4782 103.086 63.6657C102.78 63.8475 102.442 63.9384 102.072 63.9384Z" fill="white"/>
</svg>
